<svg viewBox="0 0 1000 600"><path fill="#FFF" stroke="#231F20" stroke-miterlimit="10" d="M0 0h1000v600H0z"/><g fill="#156D03"><path d="M531.728 403.743a2.826 2.826 0 01-.498.507c-.162.124-.397.185-.703.185-.292 0-.579-.088-.854-.265a30.673 30.673 0 00-.99-.601 7.593 7.593 0 00-1.373-.599c-.532-.178-1.188-.266-1.974-.266-.998 0-1.874.181-2.63.542a5 5 0 00-1.88 1.557c-.498.678-.874 1.495-1.118 2.457-.248.962-.367 2.05-.367 3.264 0 1.263.133 2.385.4 3.368.27.984.66 1.811 1.166 2.48a5.03 5.03 0 001.845 1.522c.725.346 1.538.519 2.446.519s1.643-.112 2.202-.336a6.972 6.972 0 001.418-.735c.386-.271.72-.516 1.003-.739.287-.224.605-.334.959-.334.459 0 .808.176 1.038.53l1.639 2.075a10.29 10.29 0 01-2.056 1.857c-.735.498-1.501.899-2.294 1.199-.792.3-1.61.512-2.457.634a17.3 17.3 0 01-2.513.185c-1.462 0-2.838-.273-4.129-.818a9.635 9.635 0 01-3.38-2.387c-.963-1.046-1.723-2.327-2.284-3.842-.561-1.514-.841-3.239-.841-5.179 0-1.737.25-3.348.749-4.832s1.234-2.769 2.202-3.853c.97-1.084 2.168-1.933 3.599-2.548 1.432-.616 3.076-.924 4.938-.924 1.767 0 3.315.285 4.645.854a11.292 11.292 0 013.588 2.445l-1.496 2.078zM551.148 403.351c-.154.246-.316.42-.486.52-.167.1-.382.149-.643.149a2.02 2.02 0 01-.889-.23 99.214 99.214 0 00-1.098-.52 10.405 10.405 0 00-1.419-.519c-.53-.154-1.155-.231-1.88-.231-1.123 0-2.006.239-2.652.716s-.967 1.1-.967 1.869c0 .507.163.935.492 1.28.333.346.771.65 1.316.911.546.262 1.165.496 1.856.703.694.208 1.4.435 2.122.681.723.245 1.431.526 2.123.843.691.315 1.31.713 1.857 1.199a5.59 5.59 0 011.314 1.742c.332.675.496 1.491.496 2.442 0 1.14-.208 2.188-.623 3.149a6.936 6.936 0 01-1.821 2.492c-.8.7-1.788 1.245-2.966 1.638-1.176.392-2.525.587-4.048.587-.813 0-1.61-.071-2.387-.219a14.112 14.112 0 01-2.236-.61 12.184 12.184 0 01-1.983-.923 9.53 9.53 0 01-1.604-1.153l1.314-2.169c.168-.262.368-.46.599-.6.233-.138.524-.207.879-.207.352 0 .686.1 1.003.299.314.201.678.416 1.095.646.414.23.904.446 1.464.646.563.2 1.274.3 2.136.3.676 0 1.256-.081 1.74-.242s.885-.373 1.2-.634c.315-.264.545-.564.691-.912.145-.347.219-.703.219-1.072 0-.555-.165-1.008-.494-1.361-.332-.353-.771-.661-1.314-.921a12.619 12.619 0 00-1.869-.706c-.7-.207-1.418-.434-2.146-.68-.729-.245-1.445-.535-2.146-.865s-1.321-.749-1.867-1.257a5.622 5.622 0 01-1.314-1.869c-.332-.738-.497-1.63-.497-2.675 0-.969.192-1.893.578-2.769a6.448 6.448 0 011.694-2.295c.744-.653 1.675-1.177 2.792-1.568 1.115-.394 2.401-.589 3.862-.589 1.629 0 3.114.27 4.451.808 1.339.539 2.455 1.245 3.347 2.122l-1.291 2.054zM571.308 403.351c-.154.246-.313.42-.483.52-.169.1-.385.149-.646.149-.276 0-.573-.076-.891-.23a66.868 66.868 0 00-1.093-.52 10.674 10.674 0 00-1.42-.519c-.531-.154-1.157-.231-1.879-.231-1.123 0-2.006.239-2.653.716-.646.477-.97 1.1-.97 1.869 0 .507.165.935.498 1.28.329.346.767.65 1.313.911.545.262 1.165.496 1.857.703.691.208 1.397.435 2.122.681.723.245 1.429.526 2.121.843a7.29 7.29 0 011.856 1.199 5.552 5.552 0 011.317 1.742c.33.675.494 1.491.494 2.442 0 1.14-.208 2.188-.623 3.149a6.869 6.869 0 01-1.822 2.492c-.8.7-1.788 1.245-2.963 1.638-1.176.392-2.526.587-4.049.587a12.76 12.76 0 01-2.389-.219 14.301 14.301 0 01-2.237-.61 12.506 12.506 0 01-1.983-.923 9.611 9.611 0 01-1.604-1.153l1.316-2.169c.168-.262.368-.46.6-.6.229-.138.521-.207.876-.207s.689.1 1.003.299c.313.201.682.416 1.097.646s.902.446 1.465.646c.561.2 1.271.3 2.134.3.676 0 1.256-.081 1.742-.242.483-.161.883-.373 1.198-.634.316-.264.548-.564.69-.912.148-.347.221-.703.221-1.072 0-.555-.164-1.008-.496-1.361-.332-.353-.77-.661-1.314-.921a12.492 12.492 0 00-1.869-.706c-.7-.207-1.414-.434-2.145-.68a19.736 19.736 0 01-2.145-.865 7.23 7.23 0 01-1.869-1.257 5.68 5.68 0 01-1.314-1.869c-.331-.738-.496-1.63-.496-2.675 0-.969.191-1.893.576-2.769a6.508 6.508 0 011.694-2.295c.747-.653 1.678-1.177 2.792-1.568 1.113-.394 2.404-.589 3.863-.589 1.632 0 3.115.27 4.453.808 1.338.539 2.452 1.245 3.344 2.122l-1.289 2.054zM586.324 422.404v-23.667h3.484c.736 0 1.221.348 1.451 1.037l.37 1.753c.415-.461.848-.883 1.304-1.267a8.171 8.171 0 011.453-.992 7.902 7.902 0 011.66-.658 7.402 7.402 0 011.948-.242c1.493 0 2.719.404 3.681 1.211.961.809 1.68 1.881 2.157 3.218a7.317 7.317 0 011.382-2.02 7.57 7.57 0 011.824-1.371 8.335 8.335 0 012.111-.784 10.171 10.171 0 012.249-.254c1.307 0 2.467.201 3.483.601 1.012.4 1.866.983 2.561 1.753.691.769 1.218 1.707 1.578 2.814.361 1.107.542 2.376.542 3.806v15.063h-5.697v-15.063c0-1.507-.329-2.643-.99-3.404-.661-.76-1.632-1.141-2.907-1.141-.587 0-1.129.101-1.629.301a3.843 3.843 0 00-1.313.866c-.377.374-.672.85-.886 1.418-.215.568-.325 1.222-.325 1.96v15.063h-5.721v-15.063c0-1.584-.318-2.736-.955-3.46-.64-.724-1.581-1.085-2.826-1.085-.815 0-1.58.204-2.296.612-.716.407-1.381.965-1.994 1.672v17.323h-5.699zM635.274 398.368c1.768 0 3.369.285 4.809.854s2.665 1.376 3.681 2.421c1.014 1.047 1.799 2.324 2.352 3.831.554 1.508.83 3.19.83 5.051 0 1.877-.276 3.569-.83 5.076-.553 1.508-1.338 2.79-2.352 3.851-1.016 1.063-2.241 1.877-3.681 2.446-1.439.568-3.041.853-4.809.853-1.771 0-3.377-.284-4.823-.853-1.443-.569-2.678-1.384-3.7-2.446-1.024-1.061-1.814-2.343-2.377-3.851-.563-1.507-.841-3.199-.841-5.076 0-1.86.277-3.543.841-5.051.563-1.507 1.353-2.784 2.377-3.831 1.022-1.045 2.257-1.853 3.7-2.421 1.446-.569 3.053-.854 4.823-.854zm0 19.999c1.968 0 3.426-.661 4.37-1.982.947-1.323 1.418-3.26 1.418-5.814 0-2.552-.471-4.498-1.418-5.835-.944-1.339-2.402-2.009-4.37-2.009-2.001 0-3.476.675-4.431 2.02-.953 1.346-1.428 3.287-1.428 5.824 0 2.539.475 4.473 1.428 5.803.956 1.33 2.43 1.993 4.431 1.993zM668.053 422.404c-.741 0-1.224-.346-1.455-1.038l-.461-2.282a14.019 14.019 0 01-1.545 1.498 9.757 9.757 0 01-1.744 1.153c-.622.323-1.29.573-2.005.75s-1.487.265-2.317.265c-1.291 0-2.479-.268-3.553-.807-1.076-.538-2.004-1.318-2.781-2.342-.775-1.021-1.375-2.287-1.798-3.794-.424-1.507-.634-3.229-.634-5.167 0-1.754.238-3.384.714-4.891.478-1.507 1.161-2.814 2.052-3.921a9.584 9.584 0 013.209-2.596c1.244-.623 2.644-.935 4.195-.935 1.323 0 2.456.212 3.393.636a8.943 8.943 0 012.517 1.694v-12.503h5.696v34.278h-3.483zm-7.59-4.175c1.184 0 2.191-.245 3.021-.738.831-.493 1.614-1.191 2.354-2.099V404.78c-.646-.783-1.351-1.337-2.113-1.66a6.212 6.212 0 00-2.455-.483c-.864 0-1.644.16-2.343.483s-1.293.811-1.775 1.464c-.485.655-.857 1.485-1.118 2.491-.263 1.009-.392 2.196-.392 3.565 0 1.384.111 2.557.333 3.517.224.962.542 1.746.959 2.354.414.607.921 1.045 1.522 1.313.598.271 1.267.405 2.007.405zM682.907 398.737v15.04c0 1.445.335 2.563 1.003 3.357.668.791 1.672 1.188 3.01 1.188a6.01 6.01 0 002.769-.658c.862-.438 1.675-1.041 2.444-1.811v-17.116h5.698v23.667h-3.483c-.738 0-1.223-.346-1.452-1.038l-.393-1.892c-.494.492-1.001.942-1.522 1.349a9.14 9.14 0 01-3.588 1.708 9.544 9.544 0 01-2.204.241c-1.291 0-2.434-.219-3.424-.656a6.85 6.85 0 01-2.503-1.856c-.677-.8-1.188-1.751-1.535-2.851-.345-1.098-.516-2.31-.516-3.632v-15.04h5.696zM709.988 388.126v34.278h-5.698v-34.278h5.698zM726.205 398.368c1.49 0 2.862.24 4.117.717a8.988 8.988 0 013.24 2.087c.908.915 1.615 2.037 2.123 3.367.506 1.33.762 2.849.762 4.557 0 .43-.021.787-.059 1.072-.039.284-.109.506-.207.669a.876.876 0 01-.403.346 1.733 1.733 0 01-.646.104h-14.627c.169 2.43.823 4.214 1.96 5.352 1.141 1.139 2.647 1.707 4.522 1.707.921 0 1.721-.107 2.389-.322a11.234 11.234 0 001.753-.716c.499-.261.937-.499 1.314-.714.375-.215.741-.323 1.094-.323.23 0 .431.045.602.138.169.092.313.223.438.393l1.661 2.075a9.478 9.478 0 01-2.122 1.857c-.784.498-1.603.899-2.457 1.199s-1.723.512-2.606.634c-.883.124-1.74.185-2.572.185-1.646 0-3.176-.273-4.589-.818a10.263 10.263 0 01-3.691-2.422c-1.048-1.068-1.87-2.391-2.468-3.968-.601-1.576-.902-3.402-.902-5.479 0-1.614.264-3.133.785-4.555.523-1.424 1.273-2.661 2.25-3.714.976-1.055 2.169-1.888 3.574-2.503 1.409-.617 2.994-.925 4.765-.925zm.114 4.084c-1.659 0-2.962.468-3.898 1.406-.938.938-1.538 2.269-1.8 3.99h10.703c0-.737-.098-1.434-.299-2.088a4.868 4.868 0 00-.922-1.718 4.355 4.355 0 00-1.571-1.164c-.631-.284-1.368-.426-2.213-.426zM755.13 403.351c-.155.246-.317.42-.487.52-.166.1-.382.149-.643.149-.279 0-.576-.076-.89-.23a73.653 73.653 0 00-1.098-.52 10.243 10.243 0 00-1.418-.519c-.529-.154-1.155-.231-1.879-.231-1.123 0-2.007.239-2.651.716-.647.477-.969 1.1-.969 1.869 0 .507.164.935.493 1.28.333.346.771.65 1.314.911.548.262 1.165.496 1.858.703.693.208 1.4.435 2.122.681.722.245 1.432.526 2.124.843.69.315 1.309.713 1.855 1.199a5.592 5.592 0 011.315 1.742c.331.675.497 1.491.497 2.442 0 1.14-.209 2.188-.624 3.149a6.913 6.913 0 01-1.821 2.492c-.801.7-1.789 1.245-2.967 1.638-1.176.392-2.525.587-4.048.587-.813 0-1.612-.071-2.387-.219a14.2 14.2 0 01-2.236-.61 12.184 12.184 0 01-1.983-.923 9.611 9.611 0 01-1.604-1.153l1.314-2.169c.168-.262.367-.46.598-.6.232-.138.524-.207.879-.207.354 0 .687.1 1.003.299.314.201.68.416 1.095.646s.904.446 1.464.646c.563.2 1.275.3 2.137.3.675 0 1.257-.081 1.74-.242s.884-.373 1.2-.634c.314-.264.544-.564.691-.912a2.75 2.75 0 00.218-1.072c0-.555-.166-1.008-.493-1.361-.333-.353-.771-.661-1.315-.921a12.619 12.619 0 00-1.869-.706c-.7-.207-1.417-.434-2.146-.68-.73-.245-1.447-.535-2.146-.865s-1.323-.749-1.865-1.257a5.613 5.613 0 01-1.316-1.869c-.332-.738-.496-1.63-.496-2.675 0-.969.191-1.893.577-2.769a6.472 6.472 0 011.694-2.295c.745-.653 1.676-1.177 2.793-1.568 1.113-.394 2.401-.589 3.862-.589 1.629 0 3.114.27 4.451.808 1.337.539 2.454 1.245 3.346 2.122l-1.289 2.054z"/></g><path fill="#9AE000" d="M482.729 144.357v134.204a48.096 48.096 0 018.429-.757c2.879 0 5.693.27 8.432.757V161.219h272.373V438.78H499.59v-65.75a48.192 48.192 0 01-8.432.756c-2.877 0-5.688-.27-8.429-.756v82.613h306.095V144.357H482.729z"/><g fill="#156D03"><path d="M237.479 344.876h42.023v21.012h-68.326V252.503h26.303v92.373zM347.672 365.888c-2.283 0-4.008-.312-5.177-.935-1.166-.621-2.14-1.917-2.917-3.892l-1.712-4.435c-2.022 1.712-3.968 3.217-5.837 4.514a37.116 37.116 0 01-5.797 3.309 28.715 28.715 0 01-6.381 2.022c-2.258.44-4.761.662-7.511.662-3.684 0-7.03-.482-10.04-1.445-3.01-.964-5.563-2.381-7.666-4.254-2.1-1.875-3.721-4.203-4.863-6.989-1.139-2.783-1.71-5.999-1.71-9.641 0-2.863.726-5.804 2.179-8.822 1.452-3.019 3.971-5.766 7.549-8.237 3.58-2.472 8.402-4.54 14.476-6.206 6.069-1.667 13.72-2.499 22.956-2.499v-3.456c0-4.764-.973-8.207-2.918-10.326-1.946-2.122-4.71-3.184-8.289-3.184-2.852 0-5.188.312-7.004.936-1.817.621-3.436 1.321-4.863 2.101a71.109 71.109 0 01-4.162 2.101c-1.351.623-2.957.935-4.826.935-1.659 0-3.073-.402-4.24-1.208a8.864 8.864 0 01-2.762-2.995l-4.359-7.549c4.875-4.306 10.284-7.51 16.225-9.61 5.94-2.102 12.309-3.152 19.105-3.152 4.877 0 9.274.792 13.191 2.374 3.916 1.584 7.236 3.788 9.96 6.615 2.724 2.828 4.813 6.187 6.265 10.078 1.452 3.89 2.179 8.146 2.179 12.762v50.428h-11.051zm-27.704-14.707c3.113 0 5.837-.545 8.17-1.635 2.336-1.089 4.696-2.853 7.083-5.291v-11.052c-4.826 0-8.792.315-11.906.942-3.113.627-5.578 1.412-7.395 2.354-1.815.942-3.072 2.017-3.773 3.22a7.676 7.676 0 00-1.05 3.924c0 2.774.751 4.725 2.258 5.85 1.5 1.124 3.707 1.688 6.613 1.688zM405.727 386.822c-.728 1.606-1.609 2.787-2.646 3.54-1.039.751-2.697 1.129-4.979 1.129h-18.055l15.563-32.684-32.218-73.619h21.322c1.867 0 3.32.415 4.357 1.244 1.038.831 1.763 1.816 2.181 2.958l13.229 34.785a76.838 76.838 0 013.035 9.649 76.906 76.906 0 011.712-4.902 131.7 131.7 0 001.789-4.901l11.984-34.631c.416-1.193 1.232-2.192 2.453-2.997 1.218-.804 2.527-1.205 3.928-1.205h19.456l-43.111 101.634zM568.526 285.188v51.205c0 3.996.907 7.083 2.724 9.262s4.485 3.268 8.016 3.268c2.646 0 5.123-.544 7.432-1.634 2.309-1.089 4.553-2.619 6.73-4.592v-57.509h24.127v80.699h-14.943c-3.01 0-4.981-1.347-5.912-4.047l-1.48-4.669a46.685 46.685 0 01-4.826 4.085 29.46 29.46 0 01-5.33 3.114 31.913 31.913 0 01-6.107 2.023c-2.181.491-4.566.739-7.16.739-4.41 0-8.314-.767-11.712-2.297-3.399-1.529-6.265-3.667-8.6-6.419-2.334-2.75-4.1-5.993-5.292-9.728-1.193-3.738-1.789-7.833-1.789-12.297v-51.205h24.122zM664.557 367.134c-3.841 0-7.225-.56-10.156-1.675-2.934-1.113-5.396-2.696-7.394-4.746-1.997-2.05-3.515-4.525-4.553-7.434-1.04-2.902-1.556-6.146-1.556-9.727v-41.711h-6.851c-1.242 0-2.308-.402-3.189-1.207-.883-.804-1.321-1.984-1.321-3.541v-9.415l12.841-2.49 4.745-19.689c.623-2.49 2.385-3.735 5.292-3.735h12.607v23.58h19.61v16.498h-19.61v40.078c0 1.867.454 3.411 1.362 4.63.908 1.22 2.219 1.829 3.931 1.829.881 0 1.62-.09 2.218-.273a8.997 8.997 0 001.556-.621c.44-.235.856-.441 1.243-.623.391-.182.844-.271 1.363-.271.728 0 1.311.168 1.751.504.44.338.896.869 1.362 1.597l7.316 11.439c-3.114 2.334-6.617 4.085-10.508 5.251a41.708 41.708 0 01-12.059 1.752zM491.158 284.29c-22.92 0-41.503 18.583-41.503 41.505s18.583 41.505 41.503 41.505c22.925 0 41.506-18.583 41.506-41.505s-18.581-41.505-41.506-41.505zm0 62.257c-11.46 0-20.752-9.291-20.752-20.752s9.292-20.753 20.752-20.753c11.461 0 20.753 9.292 20.753 20.753s-9.292 20.752-20.753 20.752z"/></g></svg>